<svg width="64" height="34" viewBox="0 0 64 34" fill="none" xmlns="http://www.w3.org/2000/svg">
<path d="M13.32 1.352L7.752 9.656V15.92H5.688V9.656L0.12 1.352H2.616L6.72 7.688L10.824 1.352H13.32ZM31.1625 9.152V15.92H29.0985V1.352H31.1625V7.184H32.7945C33.1465 7.184 33.4185 7.136 33.6105 7.04C33.8025 6.928 33.9945 6.728 34.1865 6.44L37.5225 1.352H40.0185L35.9385 7.496C35.7465 7.8 35.5145 8.016 35.2425 8.144C35.3545 8.192 35.4585 8.296 35.5545 8.456C35.6665 8.6 35.8105 8.824 35.9865 9.128L38.3145 13.16C38.5225 13.528 38.6985 13.784 38.8425 13.928C39.0025 14.072 39.1625 14.144 39.3225 14.144H40.6665V15.92H39.2265C38.6025 15.92 38.1065 15.808 37.7385 15.584C37.3705 15.36 37.0265 14.968 36.7065 14.408L34.2105 10.04C34.0025 9.672 33.8025 9.432 33.6105 9.32C33.4345 9.208 33.1545 9.152 32.7705 9.152H31.1625ZM41.8618 3.848V2.696L41.9578 2.672C42.4378 2.544 42.6778 2.152 42.6778 1.496V0.151999H44.9098V1.304C44.9098 2.088 44.6378 2.712 44.0938 3.176C43.5498 3.624 42.8218 3.848 41.9098 3.848H41.8618ZM3.6 21.128V33.92H1.536V19.352H7.56C9.032 19.352 10.184 19.712 11.016 20.432C11.848 21.136 12.264 22.12 12.264 23.384C12.264 24.552 11.944 25.504 11.304 26.24C10.664 26.96 9.776 27.392 8.64 27.536C8.8 27.632 8.928 27.776 9.024 27.968L10.584 30.944C10.824 31.392 11.048 31.704 11.256 31.88C11.48 32.056 11.744 32.144 12.048 32.144H13.704V33.92H12.072C11.288 33.92 10.672 33.792 10.224 33.536C9.776 33.28 9.376 32.824 9.024 32.168L7.032 28.448C6.872 28.144 6.712 27.944 6.552 27.848C6.408 27.736 6.2 27.68 5.928 27.68H4.944V25.904H7.536C8.384 25.904 9.048 25.688 9.528 25.256C10.008 24.824 10.248 24.216 10.248 23.432C10.248 22.712 9.992 22.152 9.48 21.752C8.968 21.336 8.264 21.128 7.368 21.128H3.6ZM26.004 32.144V33.92H13.476V32.144H15.516C15.356 31.968 15.236 31.752 15.156 31.496C15.076 31.224 15.036 30.872 15.036 30.44V19.352H25.044V21.128H17.1V25.616H23.7V27.344H17.1V30.536C17.1 31.096 17.204 31.504 17.412 31.76C17.62 32.016 17.956 32.144 18.42 32.144H26.004ZM31.4224 19.352H33.4864L38.2864 32.144H39.1984V33.92H37.6384C37.0304 33.92 36.6224 33.632 36.4144 33.056L32.4544 22.064L30.1984 28.328H33.4624L34.0144 30.104H29.5504L28.4944 33.056C28.2704 33.632 27.8624 33.92 27.2704 33.92H25.7104V32.144H26.6224L31.4224 19.352ZM51.5096 32.144V33.92H38.7416V32.144H42.7496C41.9016 31.552 41.2536 30.768 40.8056 29.792C40.3736 28.816 40.1576 27.728 40.1576 26.528C40.1576 25.104 40.4696 23.864 41.0936 22.808C41.7336 21.736 42.6376 20.904 43.8056 20.312C44.9736 19.704 46.3256 19.384 47.8616 19.352H49.0856H50.5496V21.128H49.0856H47.9096C46.7736 21.144 45.7736 21.384 44.9096 21.848C44.0616 22.296 43.3976 22.92 42.9176 23.72C42.4536 24.52 42.2216 25.456 42.2216 26.528C42.2216 27.648 42.4616 28.632 42.9416 29.48C43.4216 30.328 44.0856 30.984 44.9336 31.448C45.7976 31.912 46.7896 32.144 47.9096 32.144H51.5096ZM51.4682 33.92V32.144H55.3322C56.4042 32.144 56.9402 31.512 56.9402 30.248V21.128H52.3562V19.352H63.5882V21.128H59.0042V30.464C59.0042 32.768 57.8602 33.92 55.5722 33.92H51.4682Z" fill="white"/>
<path d="M23.9663 9.344H17.0063V15.92H14.9423V1.352H17.0063V7.568H23.9663V1.352H26.0303V15.92H23.9663V9.344Z" fill="#F24080"/>
</svg>
