<svg width="48" height="31" viewBox="0 0 48 31" fill="none" xmlns="http://www.w3.org/2000/svg">
<path d="M16.4998 1.764L12.3238 7.992V12.69H10.7758V7.992L6.59977 1.764H8.47177L11.5498 6.516L14.6278 1.764H16.4998ZM29.8816 7.614V12.69H28.3336V1.764H29.8816V6.138H31.1056C31.3696 6.138 31.5736 6.102 31.7176 6.03C31.8616 5.946 32.0056 5.796 32.1496 5.58L34.6516 1.764H36.5236L33.4636 6.372C33.3196 6.6 33.1456 6.762 32.9416 6.858C33.0256 6.894 33.1036 6.972 33.1756 7.092C33.2596 7.2 33.3676 7.368 33.4996 7.596L35.2456 10.62C35.4016 10.896 35.5336 11.088 35.6416 11.196C35.7616 11.304 35.8816 11.358 36.0016 11.358H37.0096V12.69H35.9296C35.4616 12.69 35.0896 12.606 34.8136 12.438C34.5376 12.27 34.2796 11.976 34.0396 11.556L32.1676 8.28C32.0116 8.004 31.8616 7.824 31.7176 7.74C31.5856 7.656 31.3756 7.614 31.0876 7.614H29.8816ZM37.9061 3.636V2.772L37.9781 2.754C38.3381 2.658 38.5181 2.364 38.5181 1.872V0.864H40.1921V1.728C40.1921 2.316 39.9881 2.784 39.5801 3.132C39.1721 3.468 38.6261 3.636 37.9421 3.636H37.9061ZM2.53008 21.096V30.69H0.982078V19.764H5.50008C6.60408 19.764 7.46808 20.034 8.09208 20.574C8.71608 21.102 9.02808 21.84 9.02808 22.788C9.02808 23.664 8.78808 24.378 8.30808 24.93C7.82808 25.47 7.16208 25.794 6.31008 25.902C6.43008 25.974 6.52608 26.082 6.59808 26.226L7.76808 28.458C7.94808 28.794 8.11608 29.028 8.27208 29.16C8.44008 29.292 8.63808 29.358 8.86608 29.358H10.1081V30.69H8.88408C8.29608 30.69 7.83408 30.594 7.49808 30.402C7.16208 30.21 6.86208 29.868 6.59808 29.376L5.10408 26.586C4.98408 26.358 4.86408 26.208 4.74408 26.136C4.63608 26.052 4.48008 26.01 4.27608 26.01H3.53808V24.678H5.48208C6.11808 24.678 6.61608 24.516 6.97608 24.192C7.33608 23.868 7.51608 23.412 7.51608 22.824C7.51608 22.284 7.32408 21.864 6.94008 21.564C6.55608 21.252 6.02808 21.096 5.35608 21.096H2.53008ZM19.3331 29.358V30.69H9.93708V29.358H11.4671C11.3471 29.226 11.2571 29.064 11.1971 28.872C11.1371 28.668 11.1071 28.404 11.1071 28.08V19.764H18.6131V21.096H12.6551V24.462H17.6051V25.758H12.6551V28.152C12.6551 28.572 12.7331 28.878 12.8891 29.07C13.0451 29.262 13.2971 29.358 13.6451 29.358H19.3331ZM23.3969 19.764H24.9449L28.5449 29.358H29.2289V30.69H28.0589C27.6029 30.69 27.2969 30.474 27.1409 30.042L24.1709 21.798L22.4789 26.496H24.9269L25.3409 27.828H21.9929L21.2009 30.042C21.0329 30.474 20.7269 30.69 20.2829 30.69H19.1129V29.358H19.7969L23.3969 19.764ZM38.4623 29.358V30.69H28.8863V29.358H31.8923C31.2563 28.914 30.7703 28.326 30.4343 27.594C30.1103 26.862 29.9483 26.046 29.9483 25.146C29.9483 24.078 30.1823 23.148 30.6503 22.356C31.1303 21.552 31.8083 20.928 32.6843 20.484C33.5603 20.028 34.5743 19.788 35.7263 19.764H36.6443H37.7423V21.096H36.6443H35.7623C34.9103 21.108 34.1603 21.288 33.5123 21.636C32.8763 21.972 32.3783 22.44 32.0183 23.04C31.6703 23.64 31.4963 24.342 31.4963 25.146C31.4963 25.986 31.6763 26.724 32.0363 27.36C32.3963 27.996 32.8943 28.488 33.5303 28.836C34.1783 29.184 34.9223 29.358 35.7623 29.358H38.4623ZM38.4312 30.69V29.358H41.3292C42.1332 29.358 42.5352 28.884 42.5352 27.936V21.096H39.0972V19.764H47.5212V21.096H44.0832V28.098C44.0832 29.826 43.2252 30.69 41.5092 30.69H38.4312Z" fill="white"/>
<path d="M24.4845 7.758H19.2645V12.69H17.7165V1.764H19.2645V6.426H24.4845V1.764H26.0325V12.69H24.4845V7.758Z" fill="#F24080"/>
</svg>
